<svg xmlns="http://www.w3.org/2000/svg" viewBox="0 0 100 100" width="80" height="80">
  <ellipse cx="50" cy="70" rx="22" ry="18" fill="#4a7c40"/>
  <ellipse cx="50" cy="44" rx="20" ry="18" fill="#5a9450"/>
  <ellipse cx="30" cy="40" rx="8" ry="12" fill="#4a7c40" transform="rotate(-20 30 40)"/>
  <ellipse cx="70" cy="40" rx="8" ry="12" fill="#4a7c40" transform="rotate(20 70 40)"/>
  <ellipse cx="30" cy="40" rx="4" ry="7" fill="#e05050" transform="rotate(-20 30 40)"/>
  <ellipse cx="70" cy="40" rx="4" ry="7" fill="#e05050" transform="rotate(20 70 40)"/>
  <ellipse cx="43" cy="40" rx="5" ry="6" fill="#fff"/>
  <ellipse cx="57" cy="40" rx="5" ry="6" fill="#fff"/>
  <circle cx="44" cy="41" r="3" fill="#111"/>
  <circle cx="58" cy="41" r="3" fill="#111"/>
  <circle cx="45" cy="40" r="1" fill="#fff"/>
  <circle cx="59" cy="40" r="1" fill="#fff"/>
  <ellipse cx="50" cy="48" rx="5" ry="3" fill="#3a6030"/>
  <circle cx="48" cy="48" r="1.5" fill="#222"/>
  <circle cx="52" cy="48" r="1.5" fill="#222"/>
  <path d="M 42 55 Q 50 61 58 55" stroke="#222" stroke-width="1.5" fill="none"/>
  <rect x="46" y="55" width="3" height="4" rx="1" fill="#fff"/>
  <rect x="51" y="55" width="3" height="4" rx="1" fill="#fff"/>
  <ellipse cx="28" cy="68" rx="7" ry="11" fill="#4a7c40" transform="rotate(-10 28 68)"/>
  <ellipse cx="72" cy="68" rx="7" ry="11" fill="#4a7c40" transform="rotate(10 72 68)"/>
</svg>
